<?xml version="1.0" encoding="UTF-8" standalone="no"?><!DOCTYPE svg PUBLIC "-//W3C//DTD SVG 1.1//EN" "http://www.w3.org/Graphics/SVG/1.1/DTD/svg11.dtd"><svg width="100%" height="100%" viewBox="0 0 296 89" version="1.1" xmlns="http://www.w3.org/2000/svg" xmlns:xlink="http://www.w3.org/1999/xlink" xml:space="preserve" xmlns:serif="http://www.serif.com/" style="fill-rule:evenodd;clip-rule:evenodd;stroke-linejoin:round;stroke-miterlimit:2;"><g><g><path d="M49.96,19.788c1.026,2.073 0.979,3.765 -0.146,5.083c-1.125,1.307 -2.802,2.224 -5.021,2.75c-2.208,0.516 -4.516,0.583 -6.917,0.208c-2.39,-0.385 -4.364,-1.213 -5.916,-2.479c-1.542,-1.26 -2.178,-3.073 -1.896,-5.437c0.375,-2.427 -0.032,-4.042 -1.209,-4.834c-1.166,-0.802 -2.432,-0.968 -3.791,-0.5c-1.365,0.459 -2.229,1.438 -2.604,2.938c-0.573,2.265 -0.058,4.265 1.541,6c1.594,1.739 3.735,3.364 6.417,4.875c2.677,1.5 5.427,3 8.25,4.5c2.818,1.5 5.302,3.146 7.458,4.937c2.167,1.782 3.443,3.891 3.834,6.334c0.458,2.448 -0.396,4.849 -2.563,7.208c-2.156,2.349 -5.135,4.271 -8.937,5.771c-3.808,1.5 -8.016,2.25 -12.625,2.25l-0.271,-0c-3.292,-0 -6.657,-0.323 -10.084,-0.979c-3.432,-0.651 -6.468,-1.657 -9.104,-3.021c-2.625,-1.375 -4.5,-3.136 -5.625,-5.292c-1.041,-2.068 -1,-3.76 0.125,-5.083c1.136,-1.318 2.813,-2.235 5.021,-2.75c2.208,-0.511 4.505,-0.584 6.896,-0.209c2.401,0.375 4.375,1.204 5.917,2.48c1.552,1.265 2.192,3.073 1.916,5.416c-0.281,2.448 0.115,4.073 1.188,4.875c1.083,0.792 2.302,0.933 3.666,0.417c1.375,-0.526 2.292,-1.49 2.75,-2.896c0.667,-2.26 0.219,-4.193 -1.333,-5.792c-1.557,-1.593 -3.698,-3.046 -6.417,-4.354c-2.724,-1.317 -5.541,-2.708 -8.458,-4.166c-2.917,-1.459 -5.458,-3.125 -7.625,-5c-2.156,-1.886 -3.37,-4.146 -3.646,-6.771c-0.375,-3.292 0.49,-6.11 2.604,-8.459c2.11,-2.343 5.068,-4.151 8.875,-5.416c3.802,-1.276 8.011,-1.917 12.625,-1.917l0.292,0c3.276,0 6.63,0.333 10.063,1c3.427,0.656 6.484,1.662 9.166,3.021c2.677,1.365 4.542,3.125 5.584,5.292Z" style="fill:#f29811;fill-rule:nonzero;"/></g></g><g><g><path d="M78.571,10.475c4.886,0 9.303,1.104 13.25,3.313c3.943,2.208 7.11,5.177 9.5,8.895c2.401,3.709 3.605,7.823 3.605,12.334c-0,4.5 -1.204,8.614 -3.605,12.333c-2.39,3.708 -5.557,6.646 -9.5,8.813c-3.947,2.156 -8.364,3.229 -13.25,3.229c-4.791,-0 -9.187,-1.073 -13.187,-3.229c-4,-2.167 -7.177,-5.105 -9.521,-8.813c-2.349,-3.719 -3.521,-7.833 -3.521,-12.333c0,-4.511 1.172,-8.625 3.521,-12.334c2.344,-3.718 5.521,-6.687 9.521,-8.895c4,-2.209 8.396,-3.313 13.187,-3.313Zm0,43.854c1.594,0 2.98,-1.88 4.146,-5.646c1.177,-3.76 1.771,-8.229 1.771,-13.395c0,-5.261 -0.594,-9.73 -1.771,-13.396c-1.166,-3.667 -2.552,-5.5 -4.146,-5.5c-1.599,-0 -2.968,1.833 -4.104,5.5c-1.125,3.666 -1.687,8.135 -1.687,13.396c-0,5.166 0.562,9.635 1.687,13.395c1.136,3.766 2.505,5.646 4.104,5.646Z" style="fill:#f29811;fill-rule:nonzero;"/></g></g><g><g><path d="M147.213,10.475c4.235,0 7.615,1.156 10.146,3.458c2.542,2.308 4.542,5.224 6,8.75c1.458,3.516 2.63,7.204 3.521,11.063c0.885,3.849 1.755,7.328 2.604,10.437c0.844,3.099 1.927,5.349 3.25,6.75c0.651,0.667 1.302,1.219 1.958,1.646c0.667,0.417 0.907,1.042 0.73,1.875c-0.198,1.417 -1.094,2.479 -2.688,3.188c-1.599,0.698 -3.458,1.161 -5.583,1.396c-2.115,0.239 -4.104,0.354 -5.979,0.354c-1.782,-0 -3.87,-0.344 -6.271,-1.042c-2.407,-0.708 -4.5,-2.047 -6.292,-4.021c-1.781,-1.968 -2.667,-4.885 -2.667,-8.75l0,-19.458c0,-3.469 -0.427,-5.75 -1.27,-6.833c-0.849,-1.084 -1.907,-1.292 -3.167,-0.625c-1.266,0.656 -2.537,1.927 -3.813,3.812c-1.265,1.875 -2.323,4.037 -3.166,6.479c-0.849,2.448 -1.271,4.844 -1.271,7.188c-0,3.099 0.255,5.989 0.771,8.666c0.526,2.683 1.442,4.724 2.75,6.125c0.666,0.667 1.323,1.219 1.979,1.646c0.667,0.417 0.901,1.042 0.708,1.875c-0.198,1.417 -1.307,2.479 -3.333,3.188c-2.016,0.698 -4.313,1.161 -6.896,1.396c-2.583,0.239 -4.812,0.354 -6.687,0.354c-1.792,-0 -3.959,-0.115 -6.5,-0.354c-2.532,-0.235 -4.761,-0.698 -6.688,-1.396c-1.917,-0.709 -2.974,-1.771 -3.167,-3.188c-0.093,-0.927 0.131,-1.63 0.688,-2.104c0.568,-0.469 1.187,-1.031 1.854,-1.687c0.75,-0.667 1.333,-1.917 1.75,-3.75c0.427,-1.834 0.688,-3.875 0.771,-6.125c0.094,-2.25 -0.021,-4.36 -0.354,-6.334c-0.323,-1.984 -0.854,-3.442 -1.604,-4.375c-0.657,-0.942 -1.365,-1.76 -2.125,-2.458c-0.75,-0.708 -1.073,-1.583 -0.98,-2.625c0.193,-1.401 1.011,-2.693 2.459,-3.875c1.458,-1.177 3.151,-2.234 5.083,-3.167c1.927,-0.942 3.693,-1.838 5.292,-2.687c1.218,-0.552 2.838,-1.302 4.854,-2.25c2.026,-0.943 4,-1.672 5.917,-2.188c1.927,-0.51 3.458,-0.51 4.583,0c1.135,0.516 1.422,1.907 0.854,4.167l-0.708,4.229c1.692,-3.01 3.76,-5.219 6.208,-6.625c2.443,-1.417 4.604,-2.125 6.479,-2.125Z" style="fill:#f29811;fill-rule:nonzero;"/></g></g><g><g><path d="M227.843,49.808c3.761,0 6.959,0.917 9.584,2.75c2.635,1.834 4.521,4.209 5.646,7.125c1.125,2.917 1.281,5.99 0.479,9.23c-0.792,3.234 -2.834,6.312 -6.125,9.229c-3.281,2.916 -7.953,5.291 -14.021,7.125c-6.057,1.833 -13.833,2.75 -23.333,2.75c-3.375,-0 -7.042,-0.188 -11,-0.563c-3.948,-0.375 -7.683,-1.057 -11.209,-2.041c-3.51,-0.99 -6.354,-2.375 -8.521,-4.167c-2.817,-2.349 -4.317,-4.656 -4.5,-6.917c-0.192,-2.25 0.49,-4.245 2.042,-5.979c1.542,-1.739 3.495,-3.047 5.854,-3.937c2.349,-0.901 4.693,-1.136 7.042,-0.709c2.344,0.417 4.177,1.662 5.5,3.729c3.469,5.443 7.25,9.131 11.333,11.063c4.094,1.927 7.646,2.896 10.646,2.896c3.011,-0 5.479,-0.641 7.396,-1.917c1.927,-1.266 3.318,-2.812 4.167,-4.646c0.843,-1.833 1.171,-3.531 0.979,-5.083c-0.183,-1.542 -0.933,-2.599 -2.25,-3.167c-1.599,-0.75 -3.177,-0.849 -4.729,-0.291c-1.542,0.567 -3.469,1.208 -5.771,1.916c-2.308,0.709 -5.386,0.922 -9.229,0.646c-4.891,-0.292 -8.537,-1.375 -10.938,-3.25c-2.391,-1.875 -3.729,-4.005 -4.021,-6.396c-0.281,-2.401 0.36,-4.687 1.917,-6.854c1.552,-2.167 3.792,-3.713 6.708,-4.646c-4.432,-1.885 -8.01,-4.312 -10.729,-7.271c-2.724,-2.958 -4.083,-6.218 -4.083,-9.791c-0,-3.761 1.406,-7.146 4.229,-10.146c2.818,-3.01 6.594,-5.438 11.333,-7.271c4.75,-1.833 9.99,-2.75 15.729,-2.75c1.318,0 2.61,0.052 3.875,0.146c1.276,0.099 2.526,0.24 3.75,0.417c1.125,-1.875 2.834,-3.677 5.125,-5.417c2.303,-1.75 4.844,-3.156 7.625,-4.229c2.776,-1.084 5.386,-1.531 7.834,-1.354c3.469,0.291 5.771,1.26 6.896,2.895c1.125,1.641 1.427,3.428 0.916,5.355c-0.515,1.932 -1.531,3.51 -3.041,4.729c-1.5,1.224 -3.188,1.599 -5.063,1.125c-1.698,-0.375 -3.531,-0.63 -5.5,-0.771c-1.974,-0.135 -3.849,-0.068 -5.625,0.208c4.417,1.792 7.938,4.198 10.563,7.209c2.635,3 3.958,6.286 3.958,9.854c-0,3.666 -1.412,7.01 -4.229,10.021c-2.823,3 -6.604,5.416 -11.354,7.25c-4.75,1.833 -9.995,2.75 -15.73,2.75l-2.104,-0c-0.75,-0 -1.51,-0.047 -2.271,-0.146c-2.432,0.948 -4.474,2.474 -6.125,4.583c-1.64,2.115 -2.51,4.115 -2.604,6c-0.099,1.875 0.938,3 3.104,3.375c2.443,0.474 4.771,0.011 6.98,-1.396c2.208,-1.416 4.437,-3.156 6.687,-5.229c2.261,-2.068 4.688,-3.922 7.271,-5.562c2.583,-1.651 5.562,-2.48 8.937,-2.48Zm-19.875,-33.541c-1.697,-0 -3.156,1.411 -4.375,4.229c-1.208,2.823 -1.812,6.25 -1.812,10.292c-0,4.041 0.604,7.494 1.812,10.354c1.219,2.864 2.678,4.291 4.375,4.291c1.693,0 3.151,-1.427 4.375,-4.291c1.219,-2.86 1.834,-6.313 1.834,-10.354c-0,-4.042 -0.615,-7.469 -1.834,-10.292c-1.224,-2.818 -2.682,-4.229 -4.375,-4.229Z" style="fill:#f29811;fill-rule:nonzero;"/></g></g><g><g><path d="M269.02,10.475c4.886,0 9.302,1.104 13.25,3.313c3.943,2.208 7.11,5.177 9.5,8.895c2.401,3.709 3.604,7.823 3.604,12.334c0,4.5 -1.203,8.614 -3.604,12.333c-2.39,3.708 -5.557,6.646 -9.5,8.813c-3.948,2.156 -8.364,3.229 -13.25,3.229c-4.791,-0 -9.187,-1.073 -13.187,-3.229c-4,-2.167 -7.177,-5.105 -9.521,-8.813c-2.349,-3.719 -3.521,-7.833 -3.521,-12.333c0,-4.511 1.172,-8.625 3.521,-12.334c2.344,-3.718 5.521,-6.687 9.521,-8.895c4,-2.209 8.396,-3.313 13.187,-3.313Zm0,43.854c1.594,0 2.979,-1.88 4.146,-5.646c1.177,-3.76 1.771,-8.229 1.771,-13.395c-0,-5.261 -0.594,-9.73 -1.771,-13.396c-1.167,-3.667 -2.552,-5.5 -4.146,-5.5c-1.599,-0 -2.968,1.833 -4.104,5.5c-1.125,3.666 -1.687,8.135 -1.687,13.396c-0,5.166 0.562,9.635 1.687,13.395c1.136,3.766 2.505,5.646 4.104,5.646Z" style="fill:#f29811;fill-rule:nonzero;"/></g></g><g><g><path d="M249.449,85.326c-0.74,-0 -1.365,-0.24 -1.875,-0.73c-0.516,-0.5 -0.771,-1.13 -0.771,-1.895c0,-0.761 0.25,-1.381 0.75,-1.855c0.5,-0.484 1.13,-0.729 1.896,-0.729c0.776,0 1.406,0.245 1.896,0.729c0.5,0.474 0.75,1.094 0.75,1.855c-0,0.765 -0.261,1.395 -0.771,1.895c-0.5,0.49 -1.125,0.73 -1.875,0.73Z" style="fill:#5e5e5e;fill-rule:nonzero;"/></g></g><g><g><path d="M259.547,72.43l-0,3.583l7.167,0l-0,3.542l-7.167,-0l-0,5.562l-4.583,0l-0,-16.229l12.729,0l-0,3.542l-8.146,-0Z" style="fill:#5e5e5e;fill-rule:nonzero;"/></g></g><g><g><path d="M285.089,85.117l-0.042,-8.604l-4.167,7l-2.041,0l-4.146,-6.771l-0,8.375l-4.25,0l-0,-16.229l3.771,0l5.708,9.375l5.563,-9.375l3.791,0l0.042,16.229l-4.229,0Z" style="fill:#5e5e5e;fill-rule:nonzero;"/></g></g></svg>